<svg width="45" height="33" viewBox="0 0 45 33" fill="none" xmlns="http://www.w3.org/2000/svg">
<path fill-rule="evenodd" clip-rule="evenodd" d="M28 5.12109H2V22.1211H28V5.12109ZM0 3.12109V24.1211H30V3.12109H0Z" fill="white"/>
<path fill-rule="evenodd" clip-rule="evenodd" d="M40 13.1212L29 5.12121L30 3.12121L43 13.1212L30 24.1212L29 22.1212L40 13.1212Z" fill="white"/>
<path fill-rule="evenodd" clip-rule="evenodd" d="M29 5.12109L1.95093 23.0482L0.846039 21.3811L27.8951 3.45399L29 5.12109Z" fill="white"/>
<path fill-rule="evenodd" clip-rule="evenodd" d="M1.95092 5.12109L29 23.0482L30.1049 21.3811L3.05582 3.45399L1.95092 5.12109Z" fill="white"/>
<circle cx="33" cy="24.1212" r="8" fill="white"/>
<path d="M36.1531 23.1414H33.8584V20.847C33.8584 20.847 33.8795 19.9913 33.0348 20.0001C32.1901 20.0089 32.1414 20.847 32.1414 20.847V23.1414H29.8469C29.8469 23.1414 29.0039 23.1453 29 23.9884C28.996 24.8315 29.8469 24.8585 29.8469 24.8585H32.1414V27.153C32.1414 27.153 32.1453 27.9961 32.9883 28C33.8315 28.0039 33.8584 27.153 33.8584 27.153V24.8585H36.1531C36.1531 24.8585 37.0088 24.8794 36.9999 24.0347C36.9911 23.19 36.1531 23.1414 36.1531 23.1414Z" fill="#0857DE"/>
</svg>
